<?xml version="1.0" encoding="utf-8"?>
<!-- Generator: Adobe Illustrator 24.0.1, SVG Export Plug-In . SVG Version: 6.00 Build 0)  -->
<svg version="1.1" id="Camada_1" xmlns="http://www.w3.org/2000/svg" xmlns:xlink="http://www.w3.org/1999/xlink" x="0px" y="0px"
	 viewBox="0 0 595.3 841.9" style="enable-background:new 0 0 595.3 841.9;" xml:space="preserve">
<style type="text/css">
	.st0{fill:#C7C8CF;}
	.st1{fill:#E0E1E3;}
	.st2{opacity:0.16;fill:#7E91B7;stroke:#7E91B4;stroke-width:5;stroke-linecap:round;stroke-linejoin:round;stroke-miterlimit:10;}
	
		.st3{display:none;opacity:0.16;fill:#A41112;stroke:#A41112;stroke-width:5;stroke-linecap:round;stroke-linejoin:round;stroke-miterlimit:10;}
	.st4{display:none;}
	
		.st5{display:inline;opacity:0.16;fill:#7E91B7;stroke:#7E91B4;stroke-width:5;stroke-linecap:round;stroke-linejoin:round;stroke-miterlimit:10;}
	.st6{opacity:0.97;fill:#7E91B7;stroke:#7E91B4;stroke-miterlimit:10;}
	.st7{fill:#333333;stroke:#1A1A1A;stroke-width:0.5;stroke-miterlimit:10;}
	.st8{fill:#212121;}
	.st9{fill:#E6C0AC;stroke:#E4C0AC;stroke-width:0.5;stroke-miterlimit:10;}
	.st10{opacity:0.97;fill:#928A9A;}
	.st11{fill:#382B28;stroke:#382B28;stroke-width:0.6;stroke-miterlimit:10;}
	.st12{fill:#191312;stroke:#1E1716;stroke-width:0.6;stroke-miterlimit:10;}
	.st13{fill:#1E1716;stroke:#1E1716;stroke-miterlimit:10;}
	.st14{fill:#BE894A;stroke:#1E1716;stroke-width:0.6;stroke-miterlimit:10;}
	.st15{fill:#D28D71;}
	.st16{opacity:0.89;fill:#D38D71;}
	.st17{fill:#A87945;}
	.st18{opacity:0.88;fill:#D38D71;}
	.st19{fill:#CD7C5D;stroke:#1E1716;stroke-width:0.5;stroke-miterlimit:10;}
	.st20{fill:#BE894A;stroke:#1E1716;stroke-width:0.5;stroke-miterlimit:10;}
	.st21{stroke:#000000;stroke-width:0.5;stroke-miterlimit:10;}
	.st22{fill:none;stroke:#000000;stroke-width:0.3;stroke-miterlimit:10;}
	.st23{fill:none;stroke:#000000;stroke-width:0.5;stroke-miterlimit:10;}
	.st24{opacity:0.77;}
	.st25{fill:#FCFBF3;}
	.st26{fill:none;stroke:#A8715E;stroke-width:0.7;stroke-miterlimit:10;}
	.st27{fill:#382B28;stroke:#382B28;stroke-width:0.5;stroke-miterlimit:10;}
	.st28{fill:none;stroke:#382B28;stroke-width:0.5;stroke-miterlimit:10;}
	.st29{stroke:#000000;stroke-miterlimit:10;}
	.st30{opacity:0.22;fill:none;stroke:#1E1716;stroke-width:0.5;stroke-miterlimit:10;}
	.st31{opacity:0.25;fill:none;stroke:#1E1716;stroke-width:0.5;stroke-miterlimit:10;}
	.st32{fill:none;stroke:#000000;stroke-miterlimit:10;}
	.st33{fill:#CCCCCC;}
	.st34{fill:#B3B3B3;}
	.st35{fill:#E5E5E5;}
	.st36{opacity:0.2;fill:none;stroke:#000000;stroke-width:3;stroke-miterlimit:10;}
	.st37{fill:#FFFFFF;}
	.st38{fill:none;stroke:#666666;stroke-width:3;stroke-miterlimit:10;}
	.st39{fill:#928A9A;}
</style>
<g id="project">
	<g id="cadeira">
		<path class="st0" d="M372.9,432.6l-11.4,45.9c0,0-19.6,0-25.3,0h-78.4c1.5-7.5,3.7-17.7,6-28.7c2-9.3,4.2-19.1,6.2-28.2
			c4.3-18.5,8.2-33.8,9.8-34.9c4.2-2.7,5.5-2.9,21.1-2.4c3.8,0.1,9.5,0.2,16,0.3c8.6,0.1,18.5,0.2,27.2,0.3c9,0.1,16.7,0.2,20.1,0.4
			h0c0.3,0,0.6,0,0.8,0c0.4,0,0.7,0.1,0.8,0.1c1.8,0.4,4.4,1.2,6.6,3.8c2.1,2.5,3.9,6.6,4.2,13.5
			C377.5,416.7,372.9,432.6,372.9,432.6z"/>
		<path class="st1" d="M372.9,432.6l-11.4,45.9h-25.3c4-19.9,14.5-66.1,14.5-66.1s3.4-18,8.7-24.5c1.6-1.9,3.3-2.6,5-2.6h0
			c0.3,0,0.6,0,0.8,0c3.7,0.5,6.6,2.9,6.6,2.9l0.8,1c2.1,2.5,3.9,6.6,4.2,13.5C377.5,416.7,372.9,432.6,372.9,432.6z"/>
	</g>
	<path class="st2" d="M149.5,357.7c0,0-12.2-18.6,17.2-39.2c29.4-20.6,35.2-28.1,42-39.7c6.8-11.6,105-8.6,109.9,8.6
		c0,0,35.2,71.2,59.6,68.7c24.4-2.5,32.8,70,28.6,70.5s-49.6,56.2-45.4,60.7c4.2,4.5-46.3,33.3-67.3,35.6s-89.7-6.4-100.4-18.7
		c-10.7-12.3-62.8-55.9-68.7-52.6c-5.9,3.2-24.4-51.4-3.4-60S154.6,367,149.5,357.7z"/>
	<polygon id="light_1_" class="st3" points="381.3,447.6 231.7,288.2 132.9,402.5 236.6,476.4 	"/>
	<g id="lights" class="st4">
		<polygon id="light" class="st5" points="127.9,395.9 322.7,296.5 376.9,437.6 254.3,472 		"/>
	</g>
	<g id="shadown">
		<path id="neck_2_" class="st6" d="M324.5,389.1c0,0-1.6,2.5-2.5,6.2c-1,4.2-1.3,10-1.6,14.6c0,0-5.6,6.8-11.8,9.9
			c-2.6,1.3-8.1,0.9-8.4,0.6c-0.2-0.3-0.3-1.2-0.2-2.3c0.1-1.3,0.4-3,0.8-4.5c0.8-2.8,1.3-6.3,0.1-13.1L324.5,389.1z"/>
		<path class="st6" d="M346.2,396.3c0,0-5.7,4-12.8,1.1c0,0-2.1,2.5-1.3,5.5c0.3,1.3,1.8,3.4,3.2,4.3c0,0-10.8-0.8-12.2-6.7
			c0,0-1.6,6.2,0,7.9c0,0-4,1.3-8.4-7.3l2.5-16.6c8.6,0.1,18.6,0.9,27.3,1c1.1,2.9,2.4,4.1,4.1,3.9c0,0-8,6.8-11.6,0
			C337.1,390,339.1,396.2,346.2,396.3z"/>
		<path class="st6" d="M343.4,428.1c-0.6,2.3-11.6,23.2-14.4,30.3c-1.1,2.2-1.8,3.5-1.8,3.5s-0.9,0.1-2.2,0
			c-2.2,10.8-2.8,14.3-3,15.8c-1.6,0-49.3,0.4-51.3,0.5c3.7-6.6,8-35.9,9.7-41.8c0.1-0.4,0.2-0.8,0.3-1.1c-0.7,1.1-2,2.2-2.7,3
			c-0.8,0.9-7.8,6.4-7.8,6.4s-2.7,2.9-5.3,4.9c2-9.3,3.3-18.9,5.4-27.9c8.5-5.4,18.5-11.9,21-13.8c4.3-1,14.3,1.9,14.3,1.9l14.3-0.6
			c0,0,6.4-0.2,9.9-1.3c3.6,0,11.1,2.1,12.6,4.3C343.8,414.4,345.1,420.8,343.4,428.1z"/>
	</g>
	<g id="peita">
		<path class="st7" d="M307.8,430.3c-0.2,1.8-4.9,13.2-9.2,17.8c-0.2,0.8-0.9,3-0.7,3.4c0.1,0.2,0.4,0.5,0.8,0.7
			c0.4,0.3,0.8,0.5,0.9,0.6c3.1,2.9,10.8,5.9,14.2,7.1c4,1.4,8.4,1.1,8.4,1.1s0.7-1.4,1.8-3.5c2.9-7.1,13.9-28,14.4-30.3
			c1.8-7.3,0.5-13.6-1-15.9c-1.5-2.3-9-4.4-12.6-4.4c-3.5,1.1-9.9,1.3-9.9,1.3l-14.3,0.6c0,0-10-2.9-14.2-1.9
			c-3.6,2.6-21.2,14.1-29.7,19.2c-3.2,3-5.6,5.9-6.4,8.3c-3,9.7-1.6,21.5-1.6,21.5s1.6-1.1,8.7-5.7c2.3-1.5,7.9-6.4,7.9-6.4
			s7-5.6,7.8-6.4c0.8-0.9,2.3-2.1,2.9-3.3c0.6-1.2,0.1-0.6,0.8-2.2c1.2-2.4,1.6-4.5,2-5.5c0,0-1.9,4-3.4,9.2
			c-1.8,6.3-6.7,39.6-10.6,43.1c3.2,0,52.1-0.1,52.1-0.1s0-2.2,3.2-17.6"/>
		<path class="st8" d="M332.1,408.5c0,0,3.3,2.7,3.5,3c0.1,0.2,0.7,0.8,0.9,1.7c0.3,1.1,0.3,2.4,0.4,3.2c0.1,0.9,0,2,0,2.8
			c0,2.3-0.1,3.9-0.6,5.4c-0.5,1.5-1.8,5.9-1.8,5.9l-4.5,13.3l4.6-9.1l1.5-3c0,0,1.9-3.7,2-4.4s0.5-2.7,0.5-2.7l0.3-3l0.1-2.2
			l-0.1-1.4l-0.2-1.7l-0.4-1.9c0,0-0.1-0.5-0.3-1.1c-0.3-0.7-0.6-1.6-0.8-1.9c-0.4-0.5-2.3-1.8-2.3-1.8L332.1,408.5z"/>
		<path class="st8" d="M304.3,438.5l-1.5,2.9c0,0-1.7,2.9-1.8,3c-0.2,0.3-1.1,1.7-1.1,1.7l-1.1,1.4l-0.4,0.5l-0.6,2.1
			c0,0-0.2,1-0.1,1.4s1,0.9,1,0.9l0.7,0.4l0.6,0.6l0.1,1.3l-0.1,1.2c0,0-0.1,0.8-0.3,0.9c-0.1,0.1-1.2,0.4-1.2,0.4l-1.9,0.5
			c0,0,2-0.8,2.3-1.1c0.3-0.3,0.6-0.9,0.6-1.3s0.1-1.5-0.2-1.8c-0.3-0.4-1.2-1-1.2-1s-0.7-0.8-0.7-1.3s0.5-3.2,0.8-3.5
			c0.3-0.3,3.9-6.4,4.4-6.7S304.3,438.5,304.3,438.5z"/>
	</g>
	<g id="face_2_">
		<g id="arm_1_">
			<path id="arm" class="st9" d="M317.7,460.7c-0.1,1.2-2.7,8.3-2.7,8.3c-2.8,2.6-13.4,3.6-14.9,3.8c-1.5,0.2-23.7,2.2-34.1,2.5
				c-0.4,0-0.7,0-1.1,0c-16,0.3-15.2-2.6-15.2-2.6s2.2-10.1,9.1-6c1.2,0.7,3.1,0.8,5.6,0.6c0.5-0.1,1-0.1,1.5-0.2
				c0.3-0.1,0.7-0.1,1-0.2c0.9-0.2,1.8-0.4,2.8-0.6c0.5-0.1,0.9-0.2,1.4-0.3c2.1-0.6,4.3-1.3,6.6-2c0.3-0.1,0.5-0.2,0.7-0.3
				c0.1,0,0.2-0.1,0.3-0.1c0.5-0.2,1-0.4,1.5-0.5c4.6-1.7,18.6-5.7,19.3-5.9c0.7-0.2,0.5-3.7,0.5-3.8c3.4,2.8,10.4,5.5,13.6,6.6
				C315.3,460.4,315.5,460.5,317.7,460.7z"/>
			<path class="st10" d="M318,460.4c0,0.3-0.1,1.2-0.5,2.2c-0.8,2.4-2.3,6.5-2.3,6.5c-2.8,2.6-13.3,3.6-14.7,3.8s-23.7,2.2-34.1,2.5
				c-0.2,0-4.5,0.2-8.4,0c-2.6-0.1-5-0.6-5.8-0.9l0.2-1.3l4.3,0.5c0,0,9.9-0.6,12.3-0.9c2.5-0.3,24.8-2.4,27.3-2.9
				c2.5-0.5,11-2.1,13.1-3.7s3.3-7.2,3.3-7.2c0.2,0.1,0.5,0.2,1.1,0.4c0.5,0.2,1.2,0.4,1.9,0.5C316.4,460.3,317.2,460.4,318,460.4z"
				/>
		</g>
		<path class="st8" d="M278,427c0,0-1.9,2.7-2.6,3.2c0,0-8.4,8.6-10,9.4c0,0-10.2,7.7-10.9,7.5c-0.7-0.3,4.7,1.1,4.7,1.1l1.9-1.4
			l1.6-1.4l1.3-1.1l2.8-2.3l3.8-3l1.6-1.4l0.4-0.4l1.5-1.5l0.5-0.5l0.5-0.6l0.3-0.5l0.3-1l1.9-5L278,427z"/>
		<g id="back_hair">
			<path class="st11" d="M330.6,324.1c0,0,1.8-5.9,6.8-7.7c0,0-4.4-2.7-7.8,0.9s-1.3,8.7-1.3,8.7h2.6L330.6,324.1z"/>
			<path class="st12" d="M312.3,307.9l-18.5,32.3c-0.6-0.1-1-0.2-1-0.2s-10-2-16.2-0.9c-3.2,0.5-5.2-0.5-4.8,1
				c1.3,4.2,0.5,11.5-1.8,12.4c-3.2,1.2-1.8,23.3-1.8,23.3c-9.4-8.6-11.1-27.5-8-42.8c1.4-6.3,6.4-13.8,14-21.1
				C276.3,309.9,303.2,304.9,312.3,307.9z"/>
			<path class="st11" d="M346.5,386.8c0,0-8,6.8-11.6,0c0.1,0.4,2.2,6.6,9.2,6.8c0,0-5.7,4-12.8,1.1c0,0-2.1,2.5-1.3,5.5
				c0.3,1.3,1.8,3.4,3.2,4.3c0,0-10.8-0.8-12.2-6.7c0,0-1.6,6.2,0,7.9c0,0-4,1.3-8.4-7.3l8-54.1c-0.3-1.3-0.5-2.2-0.5-2.2
				c-6.5,2.5,3.1-10.5,4.7-9.9c2.8,1.2,5.9-3.2,5.9-6.5c0-0.9,4.3-1.4,4.9-1c0.5,0.4,7.4,10.9,10.6,10.2c0,0-3.6,3.6-7.4,1.7
				c0,0,2.2,14.9,10,15.3c0,0-2.1,4-6.7,5.1C337.4,358.4,340,387.5,346.5,386.8z"/>
			<path class="st13" d="M335.9,353.5c0,0,0.2,6.1,1.1,6.6c0,0-0.6,3.1,0.4,3.4c1,0.2,0.2,9.8,0.2,9.8s0,2.5-0.3,5.3
				c-0.1,0.5-1.6,4.8-4.3,6.8c-2.4,1.9-5,1.8-6.4,1.4c-2.9-0.7-4.3,0.4-4.3,0.4s-1.5,0.9-2.4,2.9c-1.3,2.7-2.1,7.1-2.5,10
				c-0.2,1.3-0.4,3.4-0.4,3.7c-0.4-0.6-1.6-0.5-2.2-0.7c-0.7-0.3-1.4-0.3-1.5-0.4c-1.2-0.3,2.9-12.8,3.1-13.1
				c0.4-0.9,2.1-3.9,2.7-5.2C324.6,373.9,335.9,353.5,335.9,353.5z"/>
			<path class="st13" d="M298.1,404.4c0,0-0.5,3.4-4.2,5c0,0,1.5-3.2,0-5c0,0-5.4,4.6-7.8,3.4c0,0,2.7-2.4,1.2-6.1
				c0,0-6.2,3.6-10,0.8c0,0,4.6-4.2,2.8-6.2c-1.9-2,22.4,3.5,22.4,3.5l0.5,4.4L298.1,404.4z"/>
			<path class="st14" d="M320.1,342c0,0,2.4,11.2,4.1,11.3l-1.2,19.4l0.9,2.9c0,0,4.9-7.7,7-13.6l2.3-0.6c7.9-6.8-1.8-33.3-2.2-31
				c-5.3,6.6-10,11.2-10,11.2L320.1,342z"/>
		</g>
		<g id="face_1_">
			<path id="face" class="st9" d="M335,361.1c0,0-4.8-3.2-5.8,1.3c-1.1,4.5-5.7,11.7-6.2,11c0,0,1.8-12.3,1.4-18.1
				c0-0.6,0.1-1.5,0-1.9c-0.1-0.4-0.9-0.7-0.9-1c-1-3.4-3.2-11.5-2.7-14c0.5-2.5-2.8-9.1-9.8-9.2s-30.9-0.9-30.9-0.9
				s-9.1-0.4-8.8,5.9c0,0-0.5,12.7-1.5,13.2c-0.9,0.5-2.4,13.6-2.4,13.6l-1,17v5.5c0,0,4.2,5.5,11.1,9.5c6.8,4,12.8,4.4,12.8,4.4
				s7.9,0.8,10,0c1.2-0.5,6.7-2.1,11.3-5c3.4-2.1,6.3-5.5,7.4-6.5c1.1-0.9,2-1.9,2.5-2.6c0,0,1.3-0.7,2.1,0.5c0.4,0.6,4.7,2.1,8,0
				c2.9-1.9,6-6.7,6.3-8.3C338,375.5,342.3,366.4,335,361.1z M329.8,381.1c0,0.6-0.3,1.2-1.1,1.2c-0.7,0-1.1-0.5-1.1-1.2
				c0-0.7,0.5-1.2,1.1-1.2C329.3,379.9,329.8,380.5,329.8,381.1z"/>
			<g>
				<path class="st15" d="M327.6,368.4c0.5-0.6,1.2-1,1.8-1.3c0.7-0.3,1.4-0.5,2.2-0.6c0.8-0.1,1.5,0,2.3,0.2c0.8,0.2,1.5,0.5,2.2,1
					l0.3,0.2l0.2,0.2c0.1,0.1,0.1,0.1,0.1,0.2l0.1,0.1l0.1,0.1c0,0.1,0.1,0.2,0.1,0.2c0.1,0.2,0.1,0.3,0.1,0.4
					c0.1,0.3,0.1,0.5,0.1,0.8c0.1,0.5,0,1,0,1.5c-0.1,0.5-0.1,0.9-0.2,1.4c-0.1,0.5-0.3,0.9-0.5,1.4l-0.2,0
					c-0.1-0.9-0.3-1.7-0.5-2.6c-0.1-0.4-0.2-0.8-0.3-1.3c-0.1-0.4-0.3-0.8-0.5-1.1l0.1,0c-1.1-0.6-2.4-1-3.7-1
					c-1.3-0.1-2.6,0-3.9,0.4L327.6,368.4z"/>
			</g>
			<g>
				<path class="st15" d="M330.9,368.1c-0.2,1.7-0.4,3.3-0.7,4.9c-0.1,0.4-0.2,0.8-0.3,1.2c-0.1,0.2-0.1,0.4-0.3,0.7
					c-0.1,0.2-0.4,0.4-0.6,0.5c-0.8,0.4-1.7,0.3-2.5,0.3c0.8-0.1,1.7-0.3,2.2-0.7c0.3-0.2,0.3-0.5,0.3-0.9c0-0.4,0-0.8,0-1.2
					c0-1.6-0.1-3.3-0.3-4.9L330.9,368.1z"/>
			</g>
			<path class="st16" d="M311.3,346.1c-4.8,0.3-15.2-0.3-13-0.2c2.2,0.2-8.5-2.1-7.7-1.8c0.5,0.2-9.6,0-12.4,0.2
				c-2.8,0.2-5.4,0.7-7.5,1.1c0.1-0.8,0.3-2.6,0.3-3.5c0.5-0.2,0.7-0.3,0.9-0.3c7.1-0.8,21.4-0.3,20.6-0.6c-0.8-0.3,6.5,1.6,7.7,1.8
				c1.2,0.2,8.1,0.5,13,0.1c1.6-0.1,6.1,0.1,7.9-0.3c0,0.1,0.6,3.1,0.8,3.8c0,0.1-0.6,0.2-0.6,0.2
				C318.9,347.2,312.2,346,311.3,346.1z"/>
		</g>
		<g id="front_hair_2_">
			<path class="st17" d="M331.5,331.2c0,0-0.3,4.4-0.9,5.9c0,0-6,7-6.5,7.7c-0.5,0.7-2.1,1.7-2.1,1.7l-0.9-4.2l9.5-11.5L331.5,331.2
				z"/>
			<path id="front_hair_1_" class="st18" d="M266.8,376.5c0,0,1.7,0.8,2.6,1.3c1.7,0.9,3.3,2,3.6,1.7c0.3-0.3-2.1-4-3.9-5.2
				c-1.2-1.3-1.9-0.7-2.2,0.2C266.8,375.5,266.8,376.5,266.8,376.5z"/>
			<path id="front_hair" class="st11" d="M313.3,343c-4.8,0.3-11.8,0-13-0.1c-1.2-0.2-8.5-2.1-7.7-1.8c0.8,0.3-13.5-0.2-20.6,0.6
				c-0.8,0.1-5.8,2.8-6.2,3.2c-0.4,0.4-0.7,1.3-1.3,3.6c-0.5,2.1-1.5,4.4-1.4,6.5c0,0.7,0,2.6,0,4.6c0,3,0,6.4,0.1,6.9
				c0.3,1,2.2,3.4,4.4,5.8c1.8,1.1,4.6,5.3,4.4,5.6c-0.3,0.3-2.4-1.2-4.1-2.1c-0.9-0.5-3.6-1.9-4.2-2.3s-2.2-2.9-3.2-4.1
				c-1.3-1.9-1.3-3.2-2.1-5.8c-1-3.2-0.9-4.6-1.3-8.2c-0.3-2.8-0.2-8.1,0.1-11c0.5-4.6,2.3-13.9,3-15.4c0.9-2,3.3-6.3,4.7-8.1
				c4.5-5.9,10.1-10.1,11.1-10.7c1-0.6,9.7-1.7,14.3-2c1.3,0,6.1-0.9,10.6-1.1c5.2-0.2,10.2,0.2,10.6,0.5c0.8,0.5,11.7,7.5,11.9,7.9
				c0.1,0.5,7.6,10.4,7.6,10.4s0.4,2.9-0.1,6.3c-0.3,2-7.8,9.9-9.6,10.6C320.2,343.3,315,342.8,313.3,343z"/>
			<path class="st19" d="M323.1,350.1c0,0,5.7-6.1,7.3-7"/>
			<path class="st20" d="M324.5,354.5c0,0,4.8-4.9,5.9-5.1"/>
			<path class="st13" d="M258.4,339.2l2.1-9.7c0,0,8.7-5,12.8-5c4.1,0,15.9,6.5,17.2,6.6c1.3,0.1,9.9,4.4,19.9,5.1
				c10,0.7-12.1,1.1-12.1,1.1s-9.1-0.1-17-2.6c-7.9-2.5-7.9-2.5-7.9-2.5s-8.1,0.3-9,0.7C263.5,333.5,261,336.7,258.4,339.2z"/>
			<path class="st13" d="M297.5,307.8c-2.4,1.1-21.1,4.2-20.6,3.9c1.1-0.5-7.4,6.2-10,7.5c-0.8-0.4,8.6-9,9.3-9.2
				C276.9,309.9,300,306.7,297.5,307.8z"/>
		</g>
		<path class="st13" d="M321.1,342.3c0,0,1.9-3,1.8-4.3c0,0,6.7-9.7,7.5-12.6c0.1-0.5,0.9,4.7,0.9,4.7l-0.4,2.4l-2.1,3.1l-4.6,4.9
			l-2.5,2.1C321.8,342.5,320.7,343,321.1,342.3z"/>
		<path class="st13" d="M330.1,324c0-0.5,0.6-3.3,1.1-4c0.6-0.7,4.9-4.1,6-3.5l-2.6,1.5l-1.6,1.5l-1.2,1.7l-0.9,2.3
			c0,0-0.3,1.6-0.3,2C330.5,325.5,330.1,324.5,330.1,324z"/>
		<g id="neck_1_">
			<path id="neck" class="st9" d="M320.1,387.7c0,0-1.6,2.5-2.5,6.2c-1,4.2-1.3,10-1.6,14.6c0,0-5.6,6.8-11.8,9.9
				c-2.6,1.3-8.1,0.9-8.4,0.6c-0.2-0.3-0.3-1.2-0.2-2.3c0.1-1.3,0.4-3,0.8-4.5c0.8-2.8,1.3-6.3,0.1-13.1L320.1,387.7z"/>
			<path class="st16" d="M317.6,394.9c-0.2,0.7-1.1,1.7-2.6,3c-1,0.9-2.1,2-3.4,3.3c-6.1,6.3-13.4,7.7-14.8,7.4c0,0,0.2-1.9,0.2-2.8
				c0-0.9-0.4-3.9-0.4-3.9l10.9-7.9l11.5-4.8c0,0,0.8-0.3,0.5,0.1c-0.2,0.3-0.7,1.8-1.1,3.1C318,393.2,317.6,394.9,317.6,394.9z"/>
		</g>
		<g id="sobracelha">
			<path class="st21" d="M318.9,353.5c0,0,0.3-0.8-1.5-2.4c-0.6-0.5-2.6-2-3.6-2.5c-2.1-1.1-1.2-1.3-4.6-2c0,0-8.6,0.1-12.3,0.6
				c-2,0.2-4.3,0.2-4.6,0.8s-1.9,3.6-0.8,4.7c1.1,1.1,4.5-0.5,4.5-0.5s7-1.8,12.4-1.5C310.2,350.8,314.6,351.4,318.9,353.5z"/>
			<path class="st21" d="M276.4,346.7c0,0,5.9,1.5,6.9,3.4c0.9,1.9,0,3.4,0,3.4s-0.7-0.7-2.1-1.3c-1.5-0.7-6.5-1.1-6.5-1.1l-6.6,0.5
				c0,0-0.9-1.2-0.8-1.5s2.1-3.4,2.1-3.4H276.4z"/>
		</g>
		<g id="boca">
			<polyline class="st22" points="290.6,390.5 292.2,390.6 293.8,390.2 			"/>
			<path class="st23" d="M286.1,387.7c0,0,4.4-2,11.5,0"/>
		</g>
		<g id="noise">
			<g id="light_2_" class="st24">
				<polygon class="st25" points="284.3,368.4 282.4,377.5 280,378.2 				"/>
				<polygon class="st25" points="285.7,379.9 282.4,377.5 280,378.2 281.8,379.3 				"/>
			</g>
			<path id="narix" class="st26" d="M284.5,368c0,0-1.9,4.7-2.4,5.8c-0.5,1.1-1.5,3.3-2,3.9c-1.2,1.6,6.6,2.7,6.6,2.7s0.7-1,0.5-1.8
				"/>
		</g>
		<g id="bear_1_">
			<path id="bear" class="st27" d="M320.1,373.4c0,0,0.1,2.8-1.2,4.8c-0.5,0.8-2.4,1.3-3.8,2.2c-4.8,3.3-13.7,6.8-13.7,6.8
				s-2.9-5.4-3.2-5.7c-0.2-0.1-5.7,0.8-10,1.2c-3.7,0.3-7,0.2-7.1,0.4c-0.2,0.6,0,5.5-1.1,5.7c-1,0.1-10.6-5.9-10-6.6
				c0.5-0.7,0.3-3.9,0.3-3.9l-4.5-0.9v9.3l5,4.6l8.7,6.2l7.8,3l3.3,2h7.6l5.4-3.5l10.8-5.2c0,0,6.7-5.9,8.4-8.2
				c1.7-2.3,1.8-14.6,1.8-14.6L320.1,373.4z M299.3,390.3c-0.2,0.6-6.5,3.3-6.5,3.3s-8.1-1.6-8.2-2.2c-0.1-0.6-0.8-5.2-0.8-5.9
				c0,0,12.1-0.7,12.8-1C297.4,384.1,299.5,389.7,299.3,390.3z"/>
			<path class="st28" d="M299.3,390.3c-0.2,0.6-6.5,3.3-6.5,3.3s-8.1-1.6-8.2-2.2c-0.1-0.6-0.8-5.2-0.8-5.9c0,0,12.1-0.7,12.8-1
				C297.4,384.1,299.5,389.7,299.3,390.3z"/>
		</g>
		<g id="eyes">
			<path class="st29" d="M297.5,361l5.6-2.3h8c0,0,0.3,2,0,2.3c-0.3,0.3-3.3,0.6-3.8,0.5c0,0,0.7,5.1-3.4,5.8s-4.5-4.7-4.5-4.7
				l-1.8-0.1V361z"/>
			<path class="st29" d="M272.2,358.6c0,0,5.9,3.4,5.9,3.5c0.1,0.6-0.2,1.4-0.3,1.4h-0.7c0,0,0.3,1.5-0.1,1.8s-4.1,1.1-4.2-4.2
				l-2.2-1.2L272.2,358.6z"/>
			<path class="st30" d="M293.4,365.6c-0.2,0.9,1,3.5,1.8,4.4s2.4,1.1,2.4,1.1"/>
			<path class="st31" d="M281.2,366.4c0,0-0.4,1.2-1.2,2c-0.8,0.8-1.9,0.9-1.9,0.9"/>
		</g>
		<path id="alarg" class="st32" d="M330.1,381.1c0,0.8-0.6,1.4-1.4,1.4c-0.8,0-1.4-0.6-1.4-1.4c0-0.8,0.6-1.4,1.4-1.4
			C329.5,379.7,330.1,380.3,330.1,381.1z"/>
	</g>
	<g id="computer">
		<path class="st33" d="M257.3,474.7H134.1c-2,0-3.7-1.7-3.7-3.7v-75.2c0-2,1.7-3.7,3.7-3.7h123.2c2,0,3.7,1.7,3.7,3.7V471
			C261,473.1,259.3,474.7,257.3,474.7z"/>
		<path class="st34" d="M252,395.9V471c0,2-1.6,3.7-3.7,3.7H125.2c-2,0-3.7-1.7-3.7-3.7v-75.2c0-2,1.7-3.7,3.7-3.7h123.2
			C250.4,392.2,252,393.8,252,395.9z"/>
		<path class="st35" d="M229.2,461h-80c-2,0-3.7-1.7-3.7-3.7v-37.2c0-2,1.7-3.7,3.7-3.7h80c2,0,3.7,1.7,3.7,3.7v37.2
			C232.9,459.3,231.2,461,229.2,461z"/>
		<path class="st33" d="M226.9,418.4V459c0,1.1-1.1,2-2.5,2H142c-1.4,0-2.5-0.9-2.5-2v-40.6c0-1.1,1.1-2,2.5-2h82.4
			C225.8,416.4,226.9,417.3,226.9,418.4z"/>
		<g id="pino">
			<path class="st36" d="M212.7,443.6l-9.2,31.5h-62.2l9.2-31.5c0.4-1.3,1.8-2.3,3.2-2.3h57.2C212.2,441.3,213,442.3,212.7,443.6z"
				/>
			<polygon class="st34" points="202.2,475.1 142.7,475.1 143.3,472 202.8,472 			"/>
			<rect x="137.8" y="474.7" class="st37" width="5.2" height="2.1"/>
			<path class="st38" d="M201.6,476.4h-57.2c-1.4,0-2.2-1-1.8-2.3l9.2-31.5c0.4-1.3,1.8-2.3,3.2-2.3h57.2c1.4,0,2.2,1,1.8,2.3
				l-9.2,31.5C204.4,475.4,203,476.4,201.6,476.4z"/>
			<ellipse cx="158.9" cy="440.3" rx="0.8" ry="1.3"/>
			<ellipse cx="207.2" cy="440.3" rx="0.8" ry="1.3"/>
		</g>
	</g>
</g>
<path class="st39" d="M267.4,481.8"/>
</svg>
